<svg width="202" height="202" xmlns="http://www.w3.org/2000/svg">
 <style>.st0{clip-path:url(#SVGID_2_);fill:#000000}.st1{fill-rule:evenodd;clip-rule:evenodd;fill:#000000}</style>

 <g>
  <title>background</title>
  <rect fill="none" id="canvas_background" height="204" width="204" y="-1" x="-1"/>
 </g>
 <g>
  <title>Layer 1</title>
  <path stroke="null" d="m190.64559,40.39475c1.32205,-5.52631 0,-9.39474 -6.16958,-9.39474l-20.56528,0c-5.28821,0 -7.63853,3.5 -8.96058,7.36842c0,0 -10.42953,32.05263 -25.26591,52.68421c-4.84753,6.07895 -6.90406,7.92105 -9.54816,7.92105c-1.32205,0 -3.23169,-1.8421 -3.23169,-7.36842l0,-51.21053c0,-6.63158 -1.46895,-9.39474 -5.87579,-9.39474l-32.31686,0c-3.23169,0 -5.28821,3.13158 -5.28821,5.89474c0,6.26316 7.34474,7.73684 8.22611,25.05263l0,37.94737c0,8.28947 -1.17516,9.76316 -3.81927,9.76316c-6.90406,0 -23.94386,-32.05263 -33.9327,-68.89474c-2.05653,-6.81579 -3.96616,-9.76316 -9.25437,-9.76316l-20.56528,0c-5.87579,0 -7.05095,3.5 -7.05095,7.36842c0,6.81579 6.90406,40.71053 32.46376,85.47369c17.0398,30.57895 40.98366,47.1579 62.72409,47.1579c13.07364,0 14.68948,-3.68421 14.68948,-9.94737l0,-23.21053c0,-7.36842 1.17516,-8.8421 5.43511,-8.8421c3.08479,0 8.22611,1.8421 20.41838,16.57895c13.95501,17.5 16.30533,25.42105 24.09075,25.42105l20.56528,0c5.87579,0 8.81369,-3.68421 7.05095,-10.86842c-1.90963,-7.18421 -8.5199,-17.68421 -17.33359,-30.21053c-4.84753,-7.18421 -12.04538,-14.73684 -14.1019,-18.60526c-3.08479,-4.97369 -2.20342,-7.18421 0,-11.42105c0,-0.18421 25.11902,-44.39474 27.61623,-59.5l-0.00002,0.00001z" class="st1" id="Logo"/>
 </g>
</svg>